<svg xmlns="http://www.w3.org/2000/svg" version="1.1" xmlns:xlink="http://www.w3.org/1999/xlink" xmlns:svgjs="http://svgjs.com/svgjs" width="512" height="512"><svg xmlns="http://www.w3.org/2000/svg" viewBox="0 0 512 512"><circle cx="256" cy="256" r="224" style="stroke:#000;fill:#78716c;paint-order:fill;stroke-width:0"></circle><path d="M171.564 330.099c-12.398 0-23.505-2.971-33.321-8.911-9.816-5.942-17.532-14.45-23.151-25.524-5.617-11.075-8.425-24.264-8.425-39.567 0-15.434 2.824-28.687 8.474-39.761 5.651-11.074 13.367-19.583 23.151-25.523 9.782-5.941 20.874-8.911 33.272-8.911 7.618 0 14.77 1.097 21.454 3.293 6.683 2.196 12.672 5.391 17.966 9.589 5.296 4.198 9.671 9.331 13.126 15.401s5.763 12.947 6.926 20.631h-21.89c-.84-4.714-2.407-8.863-4.7-12.446-2.291-3.585-5.1-6.619-8.425-9.105-3.327-2.487-7.039-4.359-11.14-5.618-4.101-1.26-8.443-1.89-13.027-1.89-8.266 0-15.708 2.083-22.326 6.248-6.62 4.165-11.817 10.3-15.595 18.404-3.778 8.103-5.667 18-5.667 29.688 0 11.752 1.906 21.647 5.716 29.687 3.809 8.039 9.007 14.126 15.594 18.258 6.587 4.133 13.98 6.199 22.181 6.199 4.584 0 8.911-.613 12.98-1.839 4.068-1.227 7.78-3.068 11.139-5.522a33.921 33.921 0 0 0 8.473-8.96c2.293-3.518 3.891-7.603 4.797-12.252h21.89c-1.098 7.167-3.326 13.705-6.684 19.614a54.414 54.414 0 0 1-12.882 15.303c-5.231 4.295-11.204 7.62-17.919 9.977-6.716 2.357-14.045 3.537-21.987 3.537ZM258.3 183.838h26.54l45.911 112.166h1.647l46.009-112.166h26.926v144.323h-21.308V223.745h-1.356l-42.717 104.222h-17.24L280.48 223.648h-1.355v104.513H258.3V183.838Z" style="fill:#fff;stroke-width:0"></path></svg><style>@media (prefers-color-scheme: light) { :root { filter: none; } }
@media (prefers-color-scheme: dark) { :root { filter: invert(100%); } }
</style></svg>